<svg width="21" height="21" viewBox="0 0 21 21" fill="none" xmlns="http://www.w3.org/2000/svg">
<path d="M18.498 5.53711L14.1914 4.30664L12.9609 0H4.34766C3.32829 0 2.50195 0.826342 2.50195 1.8457V19.1543C2.50195 20.1737 3.32829 21 4.34766 21H16.6523C17.6717 21 18.498 20.1737 18.498 19.1543V5.53711Z" fill="#4086F4"/>
<path d="M18.498 5.53711V19.1543C18.498 20.1737 17.6717 21 16.6523 21H10.5V0H12.9609L14.1914 4.30664L18.498 5.53711Z" fill="#4175DF"/>
<path d="M18.498 5.53711H14.1914C13.5146 5.53711 12.9609 4.9834 12.9609 4.30664V0C13.1209 0 13.2809 0.0615234 13.3916 0.184611L18.3134 5.10649C18.4365 5.21719 18.498 5.37715 18.498 5.53711Z" fill="#80AEF8"/>
<path d="M14.1914 9.88477H6.80859C6.46853 9.88477 6.19336 9.60959 6.19336 9.26953C6.19336 8.92947 6.46853 8.6543 6.80859 8.6543H14.1914C14.5315 8.6543 14.8066 8.92947 14.8066 9.26953C14.8066 9.60959 14.5315 9.88477 14.1914 9.88477ZM14.1914 12.3457H6.80859C6.46853 12.3457 6.19336 12.0705 6.19336 11.7305C6.19336 11.3904 6.46853 11.1152 6.80859 11.1152H14.1914C14.5315 11.1152 14.8066 11.3904 14.8066 11.7305C14.8066 12.0705 14.5315 12.3457 14.1914 12.3457ZM14.1914 14.8066H6.80859C6.46853 14.8066 6.19336 14.5315 6.19336 14.1914C6.19336 13.8513 6.46853 13.5762 6.80859 13.5762H14.1914C14.5315 13.5762 14.8066 13.8513 14.8066 14.1914C14.8066 14.5315 14.5315 14.8066 14.1914 14.8066ZM11.7305 17.2676H6.80859C6.46853 17.2676 6.19336 16.9924 6.19336 16.6523C6.19336 16.3123 6.46853 16.0371 6.80859 16.0371H11.7305C12.0705 16.0371 12.3457 16.3123 12.3457 16.6523C12.3457 16.9924 12.0705 17.2676 11.7305 17.2676Z" fill="#FFF5F5"/>
<path d="M10.5 17.2676H11.7305C12.0705 17.2676 12.3457 16.9924 12.3457 16.6523C12.3457 16.3123 12.0705 16.0371 11.7305 16.0371H10.5V17.2676ZM10.5 14.8066H14.1914C14.5315 14.8066 14.8066 14.5315 14.8066 14.1914C14.8066 13.8513 14.5315 13.5762 14.1914 13.5762H10.5V14.8066ZM10.5 12.3457H14.1914C14.5315 12.3457 14.8066 12.0705 14.8066 11.7305C14.8066 11.3904 14.5315 11.1152 14.1914 11.1152H10.5V12.3457ZM10.5 9.88477H14.1914C14.5315 9.88477 14.8066 9.60959 14.8066 9.26953C14.8066 8.92947 14.5315 8.6543 14.1914 8.6543H10.5V9.88477Z" fill="#E3E7EA"/>
</svg>
