<svg width="21" height="21" viewBox="0 0 21 21" fill="none" xmlns="http://www.w3.org/2000/svg">
<path fill-rule="evenodd" clip-rule="evenodd" d="M5.38036 0H12.4013L18.3519 6.2024V18.2661C18.3519 19.7774 17.1292 21 15.6232 21H5.38036C3.86912 21 2.64648 19.7774 2.64648 18.2661V2.73387C2.64646 1.22263 3.86909 0 5.38036 0Z" fill="#E5252A"/>
<path opacity="0.302" fill-rule="evenodd" clip-rule="evenodd" d="M12.3965 0V6.15517H18.3523L12.3965 0Z" fill="white"/>
<path d="M5.68555 15.6686V11.8328H7.31749C7.72154 11.8328 8.04164 11.943 8.28301 12.1686C8.52439 12.389 8.64509 12.6881 8.64509 13.0607C8.64509 13.4332 8.52439 13.7323 8.28301 13.9527C8.04164 14.1783 7.72154 14.2885 7.31749 14.2885H6.66681V15.6686H5.68555ZM6.66681 13.4542H7.20729C7.35421 13.4542 7.46966 13.4227 7.54838 13.3493C7.62708 13.2811 7.66908 13.1866 7.66908 13.0607C7.66908 12.9348 7.6271 12.8403 7.54838 12.7721C7.46968 12.6986 7.35424 12.6671 7.20729 12.6671H6.66681V13.4542ZM9.04911 15.6686V11.8328H10.4082C10.6758 11.8328 10.9277 11.8695 11.1638 11.9482C11.3999 12.0269 11.6151 12.1371 11.804 12.2893C11.9929 12.4362 12.1451 12.6356 12.2553 12.8875C12.3602 13.1394 12.4179 13.428 12.4179 13.7533C12.4179 14.0734 12.3602 14.362 12.2553 14.6139C12.1451 14.8657 11.9929 15.0651 11.804 15.2121C11.6151 15.3642 11.3999 15.4744 11.1638 15.5532C10.9277 15.6318 10.6758 15.6686 10.4082 15.6686H9.04911ZM10.0094 14.8343H10.2927C10.4449 14.8343 10.5866 14.8185 10.7178 14.7818C10.8437 14.7451 10.9644 14.6873 11.0798 14.6086C11.19 14.5299 11.2792 14.4197 11.3422 14.2728C11.4052 14.1259 11.4367 13.9527 11.4367 13.7533C11.4367 13.5487 11.4052 13.3755 11.3422 13.2286C11.2792 13.0817 11.19 12.9715 11.0798 12.8927C10.9644 12.814 10.8437 12.7563 10.7178 12.7196C10.5866 12.6829 10.4449 12.6671 10.2927 12.6671H10.0094V14.8343ZM12.9112 15.6686V11.8328H15.6398V12.6671H13.8924V13.281H15.2882V14.1101H13.8924V15.6686H12.9112Z" fill="white"/>
</svg>
