<svg width="20" height="20" viewBox="0 0 20 20" fill="none" xmlns="http://www.w3.org/2000/svg">
<path fill-rule="evenodd" clip-rule="evenodd" d="M5.12322 0H11.8099L17.477 5.90705V17.3963C17.477 18.8356 16.3126 20 14.8783 20H5.12322C3.68394 20 2.51953 18.8356 2.51953 17.3963V2.60369C2.51951 1.16441 3.68392 0 5.12322 0Z" fill="#E5252A"/>
<path opacity="0.302" fill-rule="evenodd" clip-rule="evenodd" d="M11.8047 0V5.86207H17.4769L11.8047 0Z" fill="white"/>
<path d="M5.41406 14.9225V11.2693H6.96829C7.3531 11.2693 7.65796 11.3742 7.88784 11.5891C8.11772 11.799 8.23267 12.0839 8.23267 12.4387C8.23267 12.7935 8.11772 13.0784 7.88784 13.2883C7.65796 13.5032 7.3531 13.6081 6.96829 13.6081H6.3486V14.9225H5.41406ZM6.3486 12.8135H6.86334C7.00326 12.8135 7.11321 12.7835 7.18819 12.7136C7.26314 12.6486 7.30314 12.5587 7.30314 12.4387C7.30314 12.3188 7.26316 12.2288 7.18819 12.1639C7.11324 12.0939 7.00329 12.0639 6.86334 12.0639H6.3486V12.8135ZM8.61746 14.9225V11.2693H9.91181C10.1667 11.2693 10.4066 11.3043 10.6314 11.3792C10.8563 11.4542 11.0612 11.5592 11.2411 11.7041C11.4211 11.844 11.566 12.0339 11.6709 12.2738C11.7709 12.5137 11.8259 12.7885 11.8259 13.0984C11.8259 13.4032 11.7709 13.6781 11.6709 13.918C11.566 14.1578 11.4211 14.3477 11.2411 14.4877C11.0612 14.6326 10.8563 14.7375 10.6314 14.8125C10.4066 14.8875 10.1667 14.9225 9.91181 14.9225H8.61746ZM9.532 14.1279H9.80186C9.94678 14.1279 10.0817 14.1129 10.2067 14.0779C10.3266 14.0429 10.4415 13.9879 10.5515 13.913C10.6564 13.838 10.7414 13.7331 10.8014 13.5931C10.8613 13.4532 10.8913 13.2883 10.8913 13.0984C10.8913 12.9035 10.8613 12.7386 10.8014 12.5986C10.7414 12.4587 10.6564 12.3538 10.5515 12.2788C10.4415 12.2038 10.3266 12.1489 10.2067 12.1139C10.0817 12.0789 9.94678 12.0639 9.80186 12.0639H9.532V14.1279ZM12.2956 14.9225V11.2693H14.8943V12.0639H13.2302V12.6486H14.5595V13.4382H13.2302V14.9225H12.2956Z" fill="white"/>
</svg>
