<svg width="96" height="96" viewBox="0 0 96 96" fill="none" xmlns="http://www.w3.org/2000/svg">
<path fill-rule="evenodd" clip-rule="evenodd" d="M31.5201 57.5338L6.79969 71.8117L3.2935 64.2943C0.656619 54.4515 1.31343 58.1651 0.424805 48.0162C1.54846 36.6145 0.721012 40.7662 4.0469 29.8025C9.44624 19.6987 7.09268 23.2223 14.3594 14.365C23.2134 7.09563 19.6943 9.45005 29.7944 4.04872C40.754 0.721609 36.6007 1.54936 48.0014 0.425293V28.9812L42.1191 29.912L36.8132 32.6175L32.6019 36.8271L29.9006 42.135L28.9701 48.0162L29.6173 52.9441L31.5201 57.5338Z" fill="#8C9FAF"/>
<path fill-rule="evenodd" clip-rule="evenodd" d="M89.1998 71.8117L83.955 79.1809C75.9155 86.8497 79.1448 84.3085 69.8014 90.3153C59.4889 94.4444 63.4298 93.2882 52.5248 95.3913C41.4171 95.3913 45.506 95.7811 34.6011 93.6779C24.2886 89.5488 27.9397 91.4297 18.5963 85.4229C10.5568 77.7541 13.2485 80.859 6.80273 71.8084L31.5231 57.5305L35.0583 61.9656L39.7461 65.1607L45.168 66.8323H50.841L56.2628 65.1607L60.9506 61.9656L64.489 57.5305L89.1998 71.8117Z" fill="#8C9FAF"/>
<path fill-rule="evenodd" clip-rule="evenodd" d="M47.9983 0.425293L57.2806 1.34001C68.2402 4.66712 64.3283 3.04383 74.4316 8.44516C83.2824 15.7113 80.2913 12.7192 87.5581 21.5765C92.9574 31.6802 91.3379 27.7669 94.6606 38.7338C95.7842 50.1356 95.7424 46.1224 94.8505 56.2841C92.2137 66.1237 93.5047 62.5841 89.2001 71.8149L64.4797 57.537L66.3793 52.9441L67.0264 48.0162L66.0959 42.135L63.3914 36.8271L59.1801 32.6175L53.8742 29.912L47.9951 28.9812V0.425293" fill="white"/>
<path d="M47.9984 0C21.533 0 0 21.5409 0 48.0161C0 56.4321 2.22477 64.7354 6.43284 72.0242C15.0969 87.0364 30.6381 96 48.008 96C65.3651 96 80.9031 87.0364 89.5672 72.0242C93.7752 64.7354 96 56.4321 96 48.0161C96 21.5409 74.467 0 47.9984 0ZM64.1127 57.3211C60.7997 63.0606 54.6244 66.6261 48.0016 66.6261C41.3756 66.6261 35.2003 63.0606 31.8873 57.3211C30.2582 54.4964 29.3953 51.2788 29.3953 48.0161C29.3953 37.7545 37.7406 29.4029 48.0016 29.4029C58.2594 29.4029 66.6047 37.7513 66.6047 48.0161C66.6047 51.2788 65.7418 54.4964 64.1127 57.3211ZM47.5734 0.859961V28.5655C37.042 28.7942 28.5421 37.4292 28.5421 48.0161C28.5421 51.2852 29.3792 54.5093 30.9472 57.3726L6.95764 71.2286C2.96529 64.1589 0.849985 56.1423 0.849985 48.0161C0.849985 22.1496 21.7712 1.09186 47.5734 0.859961ZM48.008 95.1497C31.0888 95.1497 15.9372 86.4889 7.38585 71.963L31.3754 58.107C34.888 63.8948 41.2114 67.4763 47.9984 67.4763C54.7854 67.4763 61.1088 63.8916 64.6214 58.107L88.6141 71.963C80.0628 86.4889 64.9176 95.1529 48.008 95.1497ZM89.0391 71.2286L65.0496 57.3726C66.6208 54.5093 67.4547 51.2885 67.4547 48.0161C67.4547 37.426 58.958 28.7942 48.4266 28.5655V0.859961C74.2288 1.08864 95.15 22.1496 95.15 48.0161C95.15 56.1423 93.0347 64.1589 89.0391 71.2286Z" fill="#8C9FAF"/>
</svg>
