<svg width="214" height="48" viewBox="0 0 214 48" fill="none" xmlns="http://www.w3.org/2000/svg">
<path d="M14.5 15L29 36H0L14.5 15Z" fill="#0D1720"/>
<path d="M46 36H32.1574L16 12.1979L22.9191 2L46 36Z" fill="#0D1720"/>
<path d="M86.6016 36V35.9062C86.6328 35.8281 86.6562 35.7109 86.6719 35.5547C86.6875 35.3984 86.6953 35.2578 86.6953 35.1328C86.6953 34.6484 86.625 34.1172 86.4844 33.5391C86.3594 32.9453 86.1094 32.2109 85.7344 31.3359L82.8984 24.9609C82.0234 24.9297 80.8594 24.9141 79.4062 24.9141C77.9531 24.9141 76.3828 24.9141 74.6953 24.9141C73.4609 24.9141 72.2656 24.9141 71.1094 24.9141C69.9688 24.9141 68.9375 24.9297 68.0156 24.9609L65.3203 31.1484C65.0859 31.7266 64.8359 32.3594 64.5703 33.0469C64.3047 33.7344 64.1719 34.4297 64.1719 35.1328C64.1719 35.3359 64.1875 35.5078 64.2188 35.6484C64.25 35.7734 64.2812 35.8594 64.3125 35.9062V36H59.5312V35.9062C59.8125 35.6094 60.1641 35.0859 60.5859 34.3359C61.0078 33.5703 61.4688 32.6172 61.9688 31.4766L75.3984 1.6875H77.2734L90 30.3281C90.2969 31 90.6016 31.6562 90.9141 32.2969C91.2422 32.9219 91.5469 33.4844 91.8281 33.9844C92.1094 34.4844 92.3594 34.9062 92.5781 35.25C92.7969 35.5938 92.9453 35.8125 93.0234 35.9062V36H86.6016ZM71.4141 22.8984C72.3203 22.8984 73.25 22.8984 74.2031 22.8984C75.1562 22.8828 76.0859 22.875 76.9922 22.875C77.9141 22.8594 78.7969 22.8516 79.6406 22.8516C80.4844 22.8359 81.25 22.8203 81.9375 22.8047L75.3516 7.92188L68.8828 22.8984H71.4141ZM96.1875 20.6953C96.1875 19.3672 96.1641 18.2109 96.1172 17.2266C96.0859 16.2266 96.0391 15.3672 95.9766 14.6484C95.9297 13.9297 95.8594 13.3281 95.7656 12.8438C95.6875 12.3594 95.6016 11.9531 95.5078 11.625V11.5312H100.922V11.625C100.844 11.8594 100.773 12.125 100.711 12.4219C100.648 12.7188 100.594 13.0547 100.547 13.4297C101.469 12.8984 102.484 12.4531 103.594 12.0938C104.719 11.7188 105.961 11.5312 107.32 11.5312C109.055 11.5312 110.633 11.8281 112.055 12.4219C113.492 13 114.719 13.8359 115.734 14.9297C116.766 16.0234 117.562 17.3438 118.125 18.8906C118.688 20.4375 118.969 22.1719 118.969 24.0938C118.969 25.7031 118.688 27.25 118.125 28.7344C117.578 30.2188 116.766 31.5312 115.688 32.6719C114.625 33.8125 113.312 34.7266 111.75 35.4141C110.188 36.0859 108.391 36.4219 106.359 36.4219C105.141 36.4219 104.031 36.3281 103.031 36.1406C102.031 35.9531 101.109 35.7109 100.266 35.4141V38.8359C100.266 40.1641 100.281 41.3203 100.312 42.3047C100.344 43.3047 100.391 44.1641 100.453 44.8828C100.516 45.6016 100.586 46.2031 100.664 46.6875C100.742 47.1719 100.828 47.5781 100.922 47.9062V48H95.5078V47.9062C95.6016 47.5781 95.6875 47.1719 95.7656 46.6875C95.8594 46.2031 95.9297 45.6016 95.9766 44.8828C96.0391 44.1641 96.0859 43.3047 96.1172 42.3047C96.1641 41.3203 96.1875 40.1641 96.1875 38.8359V20.6953ZM106.5 13.2891C105.969 13.2891 105.422 13.3594 104.859 13.5C104.312 13.625 103.766 13.8125 103.219 14.0625C102.688 14.2969 102.172 14.6016 101.672 14.9766C101.188 15.3359 100.75 15.75 100.359 16.2188C100.328 16.8125 100.305 17.4844 100.289 18.2344C100.273 18.9844 100.266 19.8047 100.266 20.6953V32.9766C100.578 33.2109 100.93 33.4297 101.32 33.6328C101.711 33.8359 102.148 34.0234 102.633 34.1953C103.133 34.3516 103.688 34.4766 104.297 34.5703C104.922 34.6641 105.609 34.7109 106.359 34.7109C107.578 34.7109 108.68 34.4922 109.664 34.0547C110.648 33.6172 111.477 32.9844 112.148 32.1562C112.836 31.3281 113.359 30.3203 113.719 29.1328C114.094 27.9453 114.281 26.6016 114.281 25.1016C114.281 23.4141 114.141 21.8516 113.859 20.4141C113.578 18.9609 113.125 17.7109 112.5 16.6641C111.891 15.6016 111.094 14.7734 110.109 14.1797C109.125 13.5859 107.922 13.2891 106.5 13.2891ZM124.359 10.125C124.359 8.79687 124.336 7.64062 124.289 6.65625C124.258 5.65625 124.211 4.79688 124.148 4.07812C124.102 3.35937 124.031 2.75781 123.938 2.27344C123.859 1.78906 123.773 1.38281 123.68 1.05469V0.960938H129.094V1.05469C129 1.38281 128.914 1.78906 128.836 2.27344C128.758 2.75781 128.688 3.35937 128.625 4.07812C128.562 4.79688 128.516 5.65625 128.484 6.65625C128.453 7.64062 128.438 8.79687 128.438 10.125V26.8359C128.438 28.1641 128.453 29.3281 128.484 30.3281C128.516 31.3125 128.562 32.1641 128.625 32.8828C128.688 33.6016 128.758 34.2031 128.836 34.6875C128.914 35.1719 129 35.5781 129.094 35.9062V36H123.68V35.9062C123.773 35.5781 123.859 35.1719 123.938 34.6875C124.031 34.2031 124.102 33.6016 124.148 32.8828C124.211 32.1641 124.258 31.3125 124.289 30.3281C124.336 29.3281 124.359 28.1641 124.359 26.8359V10.125ZM133.828 23.9531C133.828 22.1875 134.156 20.5547 134.812 19.0547C135.469 17.5391 136.367 16.2266 137.508 15.1172C138.664 14.0078 140.023 13.1406 141.586 12.5156C143.148 11.8906 144.828 11.5781 146.625 11.5781C148.391 11.5781 150.047 11.875 151.594 12.4688C153.156 13.0469 154.516 13.875 155.672 14.9531C156.828 16.0312 157.734 17.3438 158.391 18.8906C159.062 20.4375 159.398 22.1719 159.398 24.0938C159.398 25.7031 159.117 27.25 158.555 28.7344C157.992 30.2188 157.164 31.5312 156.07 32.6719C154.977 33.8125 153.633 34.7266 152.039 35.4141C150.461 36.0859 148.641 36.4219 146.578 36.4219C144.828 36.4219 143.18 36.1328 141.633 35.5547C140.086 34.9766 138.734 34.1484 137.578 33.0703C136.422 31.9922 135.508 30.6875 134.836 29.1562C134.164 27.6094 133.828 25.875 133.828 23.9531ZM147.117 34.7109C148.227 34.7109 149.242 34.4922 150.164 34.0547C151.102 33.6172 151.906 32.9844 152.578 32.1562C153.25 31.3281 153.773 30.3203 154.148 29.1328C154.523 27.9453 154.711 26.6016 154.711 25.1016C154.711 23.4141 154.531 21.8516 154.172 20.4141C153.812 18.9609 153.273 17.7109 152.555 16.6641C151.852 15.6016 150.961 14.7734 149.883 14.1797C148.805 13.5859 147.547 13.2891 146.109 13.2891C145 13.2891 143.984 13.5078 143.062 13.9453C142.141 14.3672 141.336 14.9844 140.648 15.7969C139.977 16.6094 139.453 17.6094 139.078 18.7969C138.703 19.9688 138.516 21.3047 138.516 22.8047C138.516 24.4922 138.695 26.0625 139.055 27.5156C139.43 28.9688 139.977 30.2344 140.695 31.3125C141.414 32.375 142.305 33.2109 143.367 33.8203C144.445 34.4141 145.695 34.7109 147.117 34.7109ZM172.828 25.9219L167.203 33.0234C167 33.2891 166.789 33.5625 166.57 33.8438C166.367 34.125 166.18 34.3984 166.008 34.6641C165.852 34.9297 165.719 35.1797 165.609 35.4141C165.516 35.6484 165.469 35.8438 165.469 36H161.531V35.9062C161.781 35.6875 162.125 35.3594 162.562 34.9219C163.016 34.4844 163.492 33.9453 163.992 33.3047L171.375 23.9531L164.133 14.1562C163.727 13.625 163.328 13.1719 162.938 12.7969C162.547 12.4219 162.258 12.1875 162.07 12.0938V12H168.492C168.492 12.2656 168.586 12.6875 168.773 13.2656C168.977 13.8281 169.367 14.5078 169.945 15.3047L173.93 20.7422L178.477 14.9766C178.664 14.7266 178.852 14.4609 179.039 14.1797C179.242 13.8984 179.414 13.625 179.555 13.3594C179.711 13.0781 179.836 12.8203 179.93 12.5859C180.023 12.3516 180.07 12.1562 180.07 12H184.008V12.0938C183.789 12.2656 183.516 12.5156 183.188 12.8438C182.859 13.1719 182.43 13.6719 181.898 14.3438L175.359 22.6641L183.234 33.3047C183.766 34.0078 184.258 34.5859 184.711 35.0391C185.164 35.4922 185.492 35.7812 185.695 35.9062V36H179.297C179.297 35.7344 179.195 35.3125 178.992 34.7344C178.789 34.1406 178.414 33.4609 177.867 32.6953L172.828 25.9219ZM205.922 20.2031C205.922 18.1406 205.508 16.625 204.68 15.6562C203.852 14.6875 202.742 14.2031 201.352 14.2031C200.852 14.2031 200.289 14.3125 199.664 14.5312C199.039 14.7344 198.398 15.0156 197.742 15.375C197.086 15.7188 196.43 16.125 195.773 16.5938C195.117 17.0625 194.5 17.5625 193.922 18.0938L193.875 21.1641V26.8359C193.875 28.1641 193.891 29.3281 193.922 30.3281C193.953 31.3125 194 32.1641 194.062 32.8828C194.125 33.6016 194.195 34.2031 194.273 34.6875C194.352 35.1719 194.438 35.5781 194.531 35.9062V36H189.117V35.9062C189.211 35.5781 189.297 35.1719 189.375 34.6875C189.469 34.2031 189.539 33.6016 189.586 32.8828C189.648 32.1641 189.695 31.3125 189.727 30.3281C189.773 29.3281 189.797 28.1641 189.797 26.8359V21.1641C189.797 19.8359 189.773 18.6797 189.727 17.6953C189.695 16.6953 189.648 15.8359 189.586 15.1172C189.539 14.3984 189.469 13.7969 189.375 13.3125C189.297 12.8281 189.211 12.4219 189.117 12.0938V12H194.531V12.0938C194.406 12.4844 194.305 12.9844 194.227 13.5938C194.164 14.1875 194.094 14.9688 194.016 15.9375C194.656 15.4062 195.344 14.875 196.078 14.3438C196.828 13.8125 197.602 13.3438 198.398 12.9375C199.195 12.5156 200.008 12.1797 200.836 11.9297C201.664 11.6641 202.477 11.5312 203.273 11.5312C204.492 11.5312 205.523 11.7422 206.367 12.1641C207.227 12.5859 207.922 13.1406 208.453 13.8281C209 14.5156 209.391 15.3047 209.625 16.1953C209.875 17.0703 210 17.9609 210 18.8672V26.8359C210 28.1641 210.016 29.3281 210.047 30.3281C210.078 31.3125 210.125 32.1641 210.188 32.8828C210.25 33.6016 210.32 34.2031 210.398 34.6875C210.477 35.1719 210.562 35.5781 210.656 35.9062V36H205.242V35.9062C205.336 35.5781 205.422 35.1719 205.5 34.6875C205.594 34.2031 205.664 33.6016 205.711 32.8828C205.773 32.1641 205.82 31.3125 205.852 30.3281C205.898 29.3281 205.922 28.1641 205.922 26.8359V20.2031Z" fill="#0D1720"/>
</svg>
